<svg width="76" height="76" fill="none" xmlns="http://www.w3.org/2000/svg"><path fill-rule="evenodd" clip-rule="evenodd" d="M38 72.32c18.847 0 34.126-15.28 34.126-34.126C72.126 19.347 56.847 4.068 38 4.068c-18.847 0-34.126 15.279-34.126 34.126C3.874 57.04 19.153 72.319 38 72.319zm37.5-34.126c0 20.71-16.79 37.5-37.5 37.5S.5 58.904.5 38.194 17.29.694 38 .694s37.5 16.79 37.5 37.5z" fill="#35C"/><path fill-rule="evenodd" clip-rule="evenodd" d="M60.299 19.9c.294.2.382.594.201.9L48.183 41.693l2.328-.162c.13-.009.26.02.373.083l13.287 7.345a.674.674 0 01-.218 1.255L37.168 54.59a.673.673 0 01-.269-.01l-1.748-.43-3.56 4.24a.673.673 0 01-1.053-.025l-11.57-15.229-6.924 5.025a.674.674 0 01-.92-.968L17.6 39.17a.674.674 0 01.524-.25h1.31l-6.61-17.013a.674.674 0 01.932-.845L37.48 33.067c.117.06.214.151.28.265l3.31 5.744 2.56 1.223 15.757-20.255a.674.674 0 01.91-.144zM43.156 41.565l-2.845-1.359-3.98-1.751-4.018 9.356-.525 2.901 5.438-4.437a.664.664 0 01.051-.038l5.879-3.926v-.746zm.899 1.766l-4.479 2.991 21.037 2.21-10.207-5.643-6.351.442zm14.723 6.363L37.86 47.497l-5.588 4.559c.952.233 1.912.463 2.848.726l1.978.454 21.68-3.542zm-25.085 4.098l-2.176-.534.146 2.951 2.03-2.417zm-3.398 2.025L19.978 42.24l1.56-1.727 9.39 7.382-.792 4.373a.673.673 0 00-.01.153l.168 3.396zm1.095-9.273l2.145-4.993-3.363 4.035 1.218.958zm-2.278-1.79l2.11-2.531-15.827-17.418L20.88 38.92h.58c.15 0 .297.051.416.144l7.236 5.69zm-9.168-4.486h-1.498l-3.084 3.82 3.29-2.388 1.292-1.432zm-3.538-16.354L36.694 34.18l2.288 3.97-2.73-1.201a.674.674 0 00-.79.185l-3.37 4.044-15.686-17.263zM44.503 41.95l2.049-.142 7.468-12.668-9.517 12.233v.577z" fill="#35C"/><path fill-rule="evenodd" clip-rule="evenodd" d="M59.183 19.884a.934.934 0 011.542 1.048L48.659 41.399l1.834-.128c.18-.012.36.028.517.115l13.287 7.345a.934.934 0 01-.302 1.74L37.21 54.847a.934.934 0 01-.373-.015l-1.59-.39-3.457 4.116a.934.934 0 01-1.46-.035L18.915 43.497l-6.717 4.875a.934.934 0 01-1.275-1.343l6.475-8.022a.934.934 0 01.727-.347h.93L12.58 22.003a.934.934 0 011.293-1.172l23.725 12.003c.162.082.297.21.388.368l3.27 5.674 2.297 1.097 15.629-20.09zm.97.232a.413.413 0 00-.559.088L43.836 40.459a.26.26 0 01-.318.075l-2.56-1.223a.26.26 0 01-.113-.105l-3.31-5.744a.413.413 0 00-.171-.163L13.638 21.297a.413.413 0 00-.571.518l6.61 17.012a.26.26 0 01-.243.355h-1.31a.413.413 0 00-.321.154l-6.476 8.021a.413.413 0 00.564.594l6.923-5.025a.26.26 0 01.361.053l11.571 15.23a.413.413 0 00.645.015l3.56-4.24a.26.26 0 01.262-.086l1.748.429c.054.013.11.016.165.007l26.785-4.376a.413.413 0 00.133-.77l-13.286-7.345a.414.414 0 00-.228-.05l-2.33.161a.26.26 0 01-.242-.392l12.318-20.894a.413.413 0 00-.124-.551zm-43.954 3.64a.26.26 0 01.325-.074l20.287 10.264a.26.26 0 01.108.102l2.289 3.971a.26.26 0 01-.331.369l-2.73-1.202a.413.413 0 00-.484.114l-3.37 4.044a.26.26 0 01-.394.009L16.213 24.089a.26.26 0 01-.014-.333zm1.35 1.029L32.084 40.78l3.179-3.815a.934.934 0 011.094-.257l2.002.881-1.852-3.214-18.958-9.591zm-2.291-.202a.26.26 0 01.33.046l15.826 17.418a.26.26 0 01.008.343l-2.11 2.53a.26.26 0 01-.36.038l-7.237-5.689a.413.413 0 00-.255-.088h-.58a.26.26 0 01-.243-.166l-5.485-14.116a.26.26 0 01.106-.316zm.888 1.436l4.912 12.64h.402c.21 0 .413.071.577.2l7.037 5.533 1.802-2.162-14.73-16.21zm38.02 2.904a.26.26 0 01.079.348l-7.469 12.668a.26.26 0 01-.206.128l-2.049.142a.26.26 0 01-.278-.26v-.577a.26.26 0 01.055-.16l9.516-12.233a.26.26 0 01.352-.056zm-9.402 12.538v.209l1.633-.114 5.34-9.06-6.973 8.965zm-8.528-3.249a.26.26 0 01.2.004l3.987 1.755 2.845 1.36a.26.26 0 01.148.234v.746a.26.26 0 01-.115.217l-5.879 3.926a.456.456 0 00-.031.023l-5.439 4.437a.26.26 0 01-.42-.248l.524-2.901a.258.258 0 01.017-.056l4.019-9.357a.26.26 0 01.144-.14zm.231.587l-3.903 9.088-.394 2.177 4.891-3.99a.927.927 0 01.072-.053l5.762-3.85v-.441l-2.693-1.287-3.735-1.644zm-18.224 1.305a.26.26 0 01.203-.097h1.498a.26.26 0 01.194.435l-1.292 1.432a.263.263 0 01-.04.037l-3.29 2.388a.26.26 0 01-.356-.375l3.083-3.82zm.328.424l-1.772 2.195 1.678-1.218.881-.977h-.787zm2.774-.19a.26.26 0 01.354-.03l9.39 7.382a.26.26 0 01.096.251l-.792 4.373a.417.417 0 00-.006.094l.168 3.396a.26.26 0 01-.468.17L19.772 42.398a.26.26 0 01.014-.332l1.559-1.728zm.224.53l9.075 7.135-.764 4.219a.935.935 0 00-.014.212l.127 2.555-9.675-12.734 1.25-1.387zm12.102.46a.26.26 0 01.104.326l-2.145 4.993a.26.26 0 01-.4.102l-1.219-.958a.26.26 0 01-.04-.371l3.364-4.036a.26.26 0 01.336-.055zm-3.127 4.22l.741.582 1.304-3.037-2.045 2.454zm19.844-2.919a.26.26 0 01.145.032l10.206 5.643a.26.26 0 01-.154.487l-21.036-2.21a.26.26 0 01-.118-.476l4.48-2.99a.261.261 0 01.126-.044l6.351-.442zm-6.246.957l-3.821 2.552 19.041 2-9.014-4.983-6.206.431zm-6.447 3.709a.26.26 0 01.192-.057l20.918 2.197a.26.26 0 01.014.516L37.14 53.493a.263.263 0 01-.1-.003l-1.99-.457a74.073 74.073 0 00-2.449-.628l-.39-.096a.26.26 0 01-.103-.455l5.588-4.56zm.246.472l-5.099 4.16c.782.191 1.57.386 2.342.602l1.923.441 19.71-3.22-18.876-1.983zm-6.59 5.29a.26.26 0 01.228-.052l2.176.534a.26.26 0 01.137.42l-2.03 2.418a.26.26 0 01-.46-.155l-.145-2.951a.26.26 0 01.094-.214zm.444.537l.095 1.939 1.334-1.588-1.43-.35z" fill="#35C"/></svg>